PathFileType	4	(X/Y/Z)	/Users/itak/Documents/Research/Walk-IL/dataset/trc/00449_00167.trc
DataRate	CameraRate	NumFrames	NumMarkers	Units	OrigDataRate	OrigDataStartFrame	OrigNumFrames
100.000000	100.000000	4	54	mm	100.000000	357	477
Frame#	Time	RPSI			LPSI			L3			STRN			T10			C7			CLAV			RBAK			LBAK			LSHO			LUPA			LAEL			LAOL			LWPS			LFRA			LIFD			LHPS			LHTS			RSHO			RUPA			RAEL			RAOL			RWTS			RWPS			RFRA			RIFD			RHTS			RHPS			RBHD			LFHD			RFHD			LBHD			LHIP			RHIP			RASI			LASI			LKNE			LTHI			LANK			LTIP			LTOE			LMT1			LMT5			LHEE			RKNE			RTHI			RANK			RTIP			RTOE			RMT1			RMT5			RHEE			LWTS			*53			
		X1	Y1	Z1	X2	Y2	Z2	X3	Y3	Z3	X4	Y4	Z4	X5	Y5	Z5	X6	Y6	Z6	X7	Y7	Z7	X8	Y8	Z8	X9	Y9	Z9	X10	Y10	Z10	X11	Y11	Z11	X12	Y12	Z12	X13	Y13	Z13	X14	Y14	Z14	X15	Y15	Z15	X16	Y16	Z16	X17	Y17	Z17	X18	Y18	Z18	X19	Y19	Z19	X20	Y20	Z20	X21	Y21	Z21	X22	Y22	Z22	X23	Y23	Z23	X24	Y24	Z24	X25	Y25	Z25	X26	Y26	Z26	X27	Y27	Z27	X28	Y28	Z28	X29	Y29	Z29	X30	Y30	Z30	X31	Y31	Z31	X32	Y32	Z32	X33	Y33	Z33	X34	Y34	Z34	X35	Y35	Z35	X36	Y36	Z36	X37	Y37	Z37	X38	Y38	Z38	X39	Y39	Z39	X40	Y40	Z40	X41	Y41	Z41	X42	Y42	Z42	X43	Y43	Z43	X44	Y44	Z44	X45	Y45	Z45	X46	Y46	Z46	X47	Y47	Z47	X48	Y48	Z48	X49	Y49	Z49	X50	Y50	Z50	X51	Y51	Z51	X52	Y52	Z52	X53	Y53	Z53	X54	Y54	Z54	

358	3.57	1073.993041992188	910.0896606445312	982.78515625	1153.365234375	906.89599609375	865.794677734375	1104.630493164062	1016.107177734375	940.241943359375	1328.486083984375	1238.825439453125	1067.143310546875	1082.567016601562	1138.929809570312	926.22509765625	1113.03076171875	1414.287841796875	961.6168823242188	1290.07177734375	1349.366577148438	1039.535522460938	1023.078369140625	1289.746948242188	1017.726257324219	1133.553833007812	1361.636596679688	859.7573852539062	1260.757202148438	1395.68701171875	836.1567993164062	1310.854614257812	1286.14453125	744.5208129882812	1389.846557617188	1097.092651367188	717.0606079101562	1298.713500976562	1044.25439453125	724.3275756835938	1510.29150390625	951.9684448242188	824.392822265625	1445.074462890625	1039.615112304688	758.0944213867188	1567.266479492188	900.601318359375	974.88232421875	1557.28759765625	907.3530883789062	875.2754516601562	1546.764770507812	960.4616088867188	923.2762451171875	1098.943725585938	1390.7177734375	1138.396484375	1046.693115234375	1332.536743164062	1197.2080078125	994.4290771484375	1057.33056640625	1261.044067382812	963.1161499023438	1044.277709960938	1202.741943359375	1067.19384765625	837.54638671875	1273.93408203125	984.0682983398438	844.9693603515625	1300.336791992188	984.220947265625	1000.911376953125	1273.838256835938	1021.836853027344	683.3067016601562	1290.072021484375	1046.520874023438	733.5869750976562	1292.20849609375	977.5556030273438	757.5372314453125	1311.76220703125	1128.9892578125	1615.169921875	1055.224487304688	1322.348266601562	1642.539184570312	988.5443115234375	1255.126831054688	1647.906616210938	1099.818115234375	1205.460327148438	1610.49658203125	895.554931640625	1347.609741210938	833.41650390625	852.2740478515625	1104.685913085938	831.338623046875	1170.99365234375	1218.249267578125	887.2697143554688	1174.816040039062	1370.89404296875	884.720703125	967.7088012695312	1451.408935546875	428.4232482910156	927.52001953125	1447.837280273438	587.3817749023438	911.9992065429688	1332.266479492188	23.77177810668945	819.6569213867188	1425.228515625	274.4398498535156	886.0803833007812	1463.894165039062	27.44706535339355	1022.40576171875	1388.722290039062	41.6312141418457	995.483154296875	1457.256591796875	28.80964279174805	906.57470703125	1258.10546875	21.21094512939453	827.67626953125	1203.2958984375	453.3972473144531	1217.050170898438	1150.766235351562	704.3082275390625	1216.295776367188	1111.0556640625	32.72546768188477	1171.052612304688	1182.840454101562	306.3539428710938	1222.592651367188	1318.686401367188	34.71239471435547	1256.229370117188	1285.5908203125	38.98498153686523	1188.848388671875	1206.18603515625	34.24606323242188	1266.943603515625	1082.91015625	22.94709396362305	1096.735595703125	1485.401245117188	998.8190307617188	875.9163208007812	nan	nan	nan	
359	3.58	1074.86865234375	912.1458740234375	984.6981811523438	1154.295166015625	909.05810546875	867.8377075195312	1105.633178710938	1018.024658203125	942.5457153320312	1329.864990234375	1240.041625976562	1070.2333984375	1083.68505859375	1140.904663085938	928.7593994140625	1114.977905273438	1415.889404296875	965.0289306640625	1291.71337890625	1350.768188476562	1042.942749023438	1024.726196289062	1291.408813476562	1021.25537109375	1135.398315429688	1363.623291015625	863.1342163085938	1262.68896484375	1397.2568359375	839.5833129882812	1312.353881835938	1287.31396484375	748.16015625	1389.345947265625	1096.19091796875	720.47021484375	1297.201293945312	1045.753173828125	728.75244140625	1507.467895507812	944.586669921875	821.7861938476562	1443.866333007812	1035.9775390625	758.9494018554688	1565.9130859375	887.5922241210938	969.5413818359375	1553.965942382812	897.2501831054688	870.4666748046875	1546.1494140625	949.3579711914062	920.0318603515625	1100.848266601562	1392.249877929688	1141.712158203125	1048.9921875	1334.084838867188	1200.913818359375	999.7421264648438	1058.786743164062	1266.90185546875	967.822021484375	1044.688842773438	1209.111694335938	1076.160888671875	840.6405639648438	1281.994384765625	993.1030883789062	847.561767578125	1308.843994140625	990.5254516601562	1002.346496582031	1280.354736328125	1033.063720703125	686.6768798828125	1304.781127929688	1056.475219726562	736.3362426757812	1303.350952148438	987.9421997070312	760.9945678710938	1323.783203125	1131.797241210938	1616.73681640625	1059.511352539062	1325.156616210938	1643.270629882812	992.525146484375	1258.147827148438	1648.64306640625	1103.88671875	1207.926879882812	1612.093383789062	899.66845703125	1348.243530273438	834.9314575195312	854.19775390625	1105.033447265625	832.44140625	1172.566650390625	1218.695434570312	888.0286865234375	1176.632568359375	1371.76708984375	886.181640625	969.9619140625	1451.849243164062	429.6869201660156	928.8551635742188	1448.216186523438	588.6289672851562	913.5855102539062	1332.395874023438	24.69851684570312	819.980712890625	1425.572875976562	275.6659545898438	887.1187744140625	1464.429443359375	28.02299880981445	1022.064758300781	1389.157104492188	42.52040863037109	995.6343994140625	1457.160034179688	29.2669506072998	906.7659301757812	1258.299438476562	22.48419189453125	828.0157470703125	1201.78564453125	453.8300170898438	1217.19580078125	1151.085327148438	705.4447021484375	1217.900268554688	1110.848876953125	32.6324348449707	1171.251342773438	1181.816162109375	306.7008056640625	1222.75	1318.62353515625	34.70989608764648	1256.182250976562	1285.421997070312	39.0134391784668	1188.907348632812	1206.132568359375	34.14590072631836	1267.028076171875	1082.81005859375	22.99851036071777	1096.913940429688	1485.251586914062	990.85595703125	874.96435546875	nan	nan	nan	
360	3.59	1075.695068359375	914.3884887695312	986.7603759765625	1155.065551757812	911.5274047851562	869.9630126953125	1106.73828125	1020.075927734375	944.9473876953125	1331.22119140625	1241.457763671875	1073.091552734375	1084.792358398438	1142.974243164062	931.2258911132812	1116.888793945312	1417.616088867188	968.1632080078125	1293.314453125	1352.360717773438	1046.122314453125	1026.358276367188	1293.182006835938	1024.480102539062	1137.2421875	1365.713012695312	866.2804565429688	1264.5927734375	1399.008422851562	842.7918701171875	1313.875610351562	1288.756103515625	751.5555419921875	1388.729736328125	1095.512939453125	723.5992431640625	1295.599853515625	1047.55029296875	732.96435546875	1504.064697265625	937.4102783203125	818.8207397460938	1442.364624023438	1032.595703125	759.4855346679688	1563.654052734375	874.7127685546875	963.739990234375	1549.85498046875	887.2992553710938	865.2861938476562	1544.931396484375	938.3619995117188	916.2999267578125	1102.5849609375	1394.0478515625	1144.627319335938	1050.963989257812	1335.99658203125	1204.165283203125	1004.7294921875	1060.569946289062	1272.283081054688	972.4117431640625	1045.287475585938	1214.970825195312	1085.470336914062	844.454345703125	1289.7373046875	1002.378784179688	850.3917846679688	1316.777954101562	996.6376953125	1004.097473144531	1286.384155273438	1045.314208984375	690.69580078125	1318.376708984375	1067.347290039062	740.0881958007812	1314.03466796875	998.9276123046875	764.7449951171875	1334.847290039062	1134.545776367188	1618.466918945312	1063.582885742188	1327.934692382812	1644.143798828125	996.3602294921875	1261.109619140625	1649.490234375	1107.772216796875	1210.388793945312	1613.92041015625	903.5619506835938	1348.685791015625	836.6905517578125	855.9578857421875	1105.498779296875	833.6561889648438	1174.22607421875	1219.319946289062	888.8430786132812	1178.339233398438	1372.6533203125	887.8970947265625	971.998779296875	1452.0986328125	431.1263122558594	929.9672241210938	1448.395874023438	590.0517578125	914.896728515625	1332.58740234375	25.70144653320312	820.2998046875	1425.858154296875	276.9905700683594	888.0739135742188	1465.091430664062	28.99772834777832	1021.731262207031	1389.69775390625	43.66483688354492	995.8409423828125	1457.0869140625	29.80963897705078	907.0001220703125	1258.518432617188	23.7295036315918	828.4419555664062	1200.0498046875	454.267333984375	1216.989379882812	1151.522094726562	706.6931762695312	1219.590942382812	1110.65380859375	32.5020637512207	1171.386352539062	1180.5751953125	307.0872192382812	1222.663818359375	1318.535400390625	34.71657943725586	1256.093505859375	1285.279907226562	39.06191253662109	1188.9453125	1206.077270507812	34.06837844848633	1267.083251953125	1082.694458007812	23.00393104553223	1097.0595703125	1484.698120117188	983.0858764648438	873.5675659179688	nan	nan	nan	
361	3.6	1076.4921875	916.7706909179688	988.9144287109375	1155.713623046875	914.1925048828125	872.1280517578125	1107.956665039062	1022.206970214844	947.4481201171875	1332.590209960938	1242.976440429688	1075.749389648438	1085.917358398438	1145.085205078125	933.6677856445312	1118.793823242188	1419.423950195312	971.0399780273438	1294.92236328125	1354.04541015625	1049.080200195312	1027.993041992188	1295.031372070312	1027.424194335938	1139.116333007812	1367.837646484375	869.2266845703125	1266.52978515625	1400.846557617188	845.7996826171875	1315.446166992188	1290.367065429688	754.7067260742188	1388.03271484375	1095.025756835938	726.41455078125	1293.965454101562	1049.546630859375	736.8416748046875	1500.14599609375	930.5764770507812	815.5778198242188	1440.601806640625	1029.499633789062	759.7269287109375	1560.496215820312	862.2385864257812	957.6343383789062	1545.041625976562	877.719970703125	859.8685913085938	1543.087646484375	927.6926879882812	912.1832275390625	1104.202880859375	1396.028198242188	1147.2001953125	1052.664428710938	1338.169189453125	1207.015258789062	1009.344909667969	1062.592407226562	1277.223266601562	976.8567504882812	1046.002807617188	1220.351928710938	1095.054077148438	848.9478759765625	1297.1328125	1011.841918945312	853.3657836914062	1324.140502929688	1002.510070800781	1006.083374023438	1291.96484375	1058.53271484375	695.2400512695312	1330.65087890625	1079.144653320312	744.8809814453125	1324.2158203125	1010.487243652344	768.6411743164062	1344.889892578125	1137.226806640625	1620.286010742188	1067.414306640625	1330.667602539062	1645.12890625	1000.026672363281	1264.00390625	1650.428466796875	1111.467163085938	1212.840942382812	1615.905639648438	907.215087890625	1348.994018554688	838.5984497070312	857.5618286132812	1106.050659179688	834.9307861328125	1175.923583984375	1220.095092773438	889.6732788085938	1179.944091796875	1373.535888671875	889.7366943359375	973.8148803710938	1452.1689453125	432.6466979980469	930.8875122070312	1448.417114257812	591.5689697265625	915.9686279296875	1332.866821289062	26.70546722412109	820.6639404296875	1426.085693359375	278.3565368652344	888.9481811523438	1465.819091796875	30.4107494354248	1021.496948242188	1390.30859375	44.9986686706543	996.1402587890625	1457.056396484375	30.41867828369141	907.3267211914062	1258.807861328125	24.8611011505127	828.9567260742188	1198.173583984375	454.7097473144531	1216.463012695312	1152.045776367188	708.001708984375	1221.320068359375	1110.473510742188	32.33990859985352	1171.460327148438	1179.181762695312	307.4918823242188	1222.346801757812	1318.426513671875	34.7303466796875	1255.9638671875	1285.157958984375	39.10708999633789	1188.941772460938	1206.025146484375	34.02151107788086	1267.106811523438	1082.563232421875	22.9545726776123	1097.17529296875	1483.70703125	975.628662109375	871.7782592773438	nan	nan	nan	
